/* XPM */
static char *result[] = {
/* columns rows colors chars-per-pixel */
"60 60 9 1 ",
"  c #181220",
". c #251E30",
"X c #551C1F",
"o c #00627C",
"O c #854024",
"+ c green",
"@ c #CD9152",
"# c #00AED7",
"$ c #60DDF3",
/* pixels */
"++++++++++++++++++++++++++++++++++++++++++++++++++++++++++++",
"++++++++++++++++++++++++++++++++++++++++++++++++++++++++++++",
"++++++++++++++++++++++++++++++++++++++++++++++++++++++++++++",
"++++++++++++++++++++++++++++++++++++++++++++++++++++++++++++",
"++++++++++++++++++++++++++++++++++++++++++++++++++++++++++++",
"++++++++++++++++++++++++++++++++++++++++++++++++++++++++++++",
"++++++++++++++++++++++++++++++++++++++++++++++++++++++++++++",
"++++++++++++++++++++++++++++++++++++++++++++++++++++++++++++",
"++++++++++++++++++++++++++++++++++++++++++++++++++++++++++++",
"++++++++++++++++++++++++++++++++++++++++++++++++++++++++++++",
"++++++++++++++++++++++++++++++++++++++++++++++++++++++++++++",
"++++++++++++++++++++++++++++++++++++++++++++++++++++++++++++",
"++++++++++++++++++++++++++++++++++++++++++++++++++++++++++++",
"++++++++++++++++++++++++++++++++++++++++++++++++++++++++++++",
"++++++++++++++++++++++++++++++++++++++++++++++++++++++++++++",
"++++++++++++++++++++++++++.....+++++++++++++++++++++++++++++",
"++++++++++++++++++++++++........++++++++++++++++++++++++++++",
"+++++++++++++++++++++++..    ....+++++++++++++++++++++++++++",
"+++++++++++++++++++++++..     ....++++++++++++++++++++++++++",
"+++++++++++++++++++++++. o###o    ++++++++++++++++++++++++++",
"+++++++++++++++++++++++.o##$##o    +++++++++++++++++++++++++",
"++++++++++++++++++++++..##$$$##.    ++++++++++++++++++++++++",
"++++++++++++++++++++++..#  #  #..   ++++++++++++++++++++++++",
"++++++++++++++++++++++. #  #  # .   ++++++++++++++++++++++++",
"++++++++++++++++++++++. o$# $$o ..  .+++++++++++++++++++++++",
"++++++++++++++++++++++.  o####o ..  .+++++++++++++++++++++++",
"+++++++++++++++++++++..  # $ $ ...  .+++++++++++++++++++++++",
"+++++++++++++++++++++...       ... ...++++++++++++++++++++++",
"+++++++++++++++++++++. ..     ... ....++++++++++++++++++++++",
"+++++++++++++++++++++.   .  ....  .....+++++++++++++++++++++",
"++++++++++++++++++++...  .  ..   ......+++++++++++++++++++++",
"+++++++++++++++++++.. .. . ...  ........++++++++++++++++++++",
"+++++++++++++++++++.   . . ...  ..    ..++++++++++++++++++++",
"++++++++++++++++++..    .. ...     ......+++++++++++++++++++",
"++++++++++++++++++. . ... ...  ...   .....++++++++++++++++++",
"++++++++++++++++++.  ..OO . .... . .  ....++++++++++++++++++",
"+++++++++++++++++++. O@@  ..OO     .. ... ++++++++++++++++++",
"+++++++++++++++++++. OXX  .O@@@OX  ......+++++++++++++++++++",
"++++++++++++++++++++  @@  O@@@@OX  ..... +++++++++++++++++++",
"++++++++++++++++++++     ...@@O    ....  +++++++++++++++++++",
"++++++++++++++++++++      .        .... ++++++++++++++++++++",
"++++++++++++++++++++      ...      ...  ++++++++++++++++++++",
"++++++++++++++++++++      . .  ..  ...  ++++++++++++++++++++",
"++++++++++++++++++++      . .  ..  ...  ++++++++++++++++++++",
"+++++++++++++++++++++     . . . .  . .  ++++++++++++++++++++",
"++++++++++++++++++++++    . . . .  . +  ++++++++++++++++++++",
"++++++++++++++++++++++  .   . . .    +  ++++++++++++++++++++",
"++++++++++++++++++++++  .   . . .    +  ++++++++++++++++++++",
"++++++++++++++++++++++  .   . . .    + +++++++++++++++++++++",
"++++++++++++++++++++++. .   . . .  + + +++++++++++++++++++++",
"+++++++++++++++++++++++ + . . . +  +++ +++++++++++++++++++++",
"+++++++++++++++++++++++++ . . . +. +++++++++++++++++++++++++",
"+++++++++++++++++++++++++.. . .++  +++++++++++++++++++++++++",
"++++++++++++++++++++++++++. . .++ .+++++++++++++++++++++++++",
"++++++++++++++++++++++++++.+. +++ ++++++++++++++++++++++++++",
"+++++++++++++++++++++++++++++ ++++++++++++++++++++++++++++++",
"+++++++++++++++++++++++++++++.++++++++++++++++++++++++++++++",
"++++++++++++++++++++++++++++++++++++++++++++++++++++++++++++",
"++++++++++++++++++++++++++++++++++++++++++++++++++++++++++++",
"++++++++++++++++++++++++++++++++++++++++++++++++++++++++++++"
};
